# xmcd
#
# Track frame offsets: 
#        150
#        20984
#        36289
#        52437
#        68208
#        94695
#        110855
#        135484
#        154405
#        177598
#        181788
#        203729
#        221388
#
# Disc length: 3589 seconds
#
# Revision: 0
# Processed by: cddbd v1.5.2PL0 Copyright (c) Steve Scherf et al.
# Submitted via: ExactAudioCopy v0.95b1
#
DISCID=c80e030d
DTITLE=Ian Siegal - The Dust
DYEAR=2008
DGENRE=Blues
TTITLE0=Stranger Clothed in Linen
TTITLE1=The Good Home
TTITLE2=The Silver Spurs
TTITLE3=CCKMP
TTITLE4=Between the Stirrup and the Ground
TTITLE5=The Gauntlet
TTITLE6=Southern Cross Blues
TTITLE7=I Drink
TTITLE8=I'll Fly Away
TTITLE9=High Sheriff Intro (Live)
TTITLE10=Brand New High Sheriff Blues (Live)
TTITLE11=Mary Don't You Weep (Live)
TTITLE12=Dirt Road/Call Me the Wolf (Live)
EXTD=
EXTT0=
EXTT1=
EXTT2=
EXTT3=
EXTT4=
EXTT5=
EXTT6=
EXTT7=
EXTT8=
EXTT9=
EXTT10=
EXTT11=
EXTT12=
PLAYORDER=
